<svg id="Map_Marker_Alt_Icon" data-name="Map Marker Alt Icon" xmlns="http://www.w3.org/2000/svg" width="15" height="21.279" viewBox="0 0 15 21.279">
  <path id="Map_Marker_Alt_Icon-2" data-name="Map Marker Alt Icon" d="M6.729,20.849C1.054,12.1,0,11.2,0,7.979A7.751,7.751,0,0,1,7.5,0,7.751,7.751,0,0,1,15,7.979c0,3.217-1.054,4.116-6.729,12.87a.907.907,0,0,1-1.542,0ZM7.5,11.3a3.23,3.23,0,0,0,3.125-3.325A3.23,3.23,0,0,0,7.5,4.655,3.23,3.23,0,0,0,4.375,7.979,3.23,3.23,0,0,0,7.5,11.3Z" transform="translate(0)" fill="#ed1b2e"/>
</svg>
