<svg id="blended_learning" data-name="blended learning" xmlns="http://www.w3.org/2000/svg" xmlns:xlink="http://www.w3.org/1999/xlink" width="100" height="99.998" viewBox="0 0 100 99.998">
  <defs>
    <clipPath id="clip-path">
      <rect id="Rectangle_4154" data-name="Rectangle 4154" width="100" height="99.998" fill="none"/>
    </clipPath>
  </defs>
  <g id="Group_1728" data-name="Group 1728" clip-path="url(#clip-path)">
    <path id="Union_17" data-name="Union 17" d="M29.774,53.4a.814.814,0,0,1-.238-1.125L62.762,1.113A.813.813,0,1,1,64.127,2L30.9,53.165a.814.814,0,0,1-1.126.239Zm47.8-.052V50.4a2.005,2.005,0,0,1,2.015-1.929H81.67A1.938,1.938,0,0,1,83.608,50.4v2.949Zm-15.634,0V50.4a1.938,1.938,0,0,1,1.939-1.929h2.079A2,2,0,0,1,67.976,50.4v2.949Zm7.164,0,1.2-3.263a1.992,1.992,0,0,1,1.877-1.617h1.186a1.992,1.992,0,0,1,1.877,1.617l1.2,3.263ZM49.046,48.838v-4.7l-1.654,4.7H44.376l3.3-9.382a1.4,1.4,0,0,1,1.365-.971l1.906,0h4.42l1.109,0L59.375,37.1V27.711H84.76v15.2H59.375v-2.66l-2.056.986c-.03.014-.06.022-.092.033l0,7.569Zm34.212-7.431V29.214H60.879v7.161l5.781-2.77a1.327,1.327,0,0,1,1.771.622l.082.17a1.326,1.326,0,0,1-.62,1.771l-7.014,3.361v1.877ZM63.471,46.388a1.5,1.5,0,1,1,1.5,1.5A1.5,1.5,0,0,1,63.471,46.388Zm7.782-.014a1.522,1.522,0,1,1,1.522,1.51A1.516,1.516,0,0,1,71.253,46.373Zm7.826-.114a1.5,1.5,0,1,1,1.5,1.507A1.5,1.5,0,0,1,79.078,46.259ZM50.1,34.769A3.028,3.028,0,1,1,53.119,37.8,3.027,3.027,0,0,1,50.1,34.769ZM22.427,23.046a6.338,6.338,0,0,1-.036-.691c.009-2.14,1.22-3.443,3.192-4.327a15.4,15.4,0,0,1,13.346.092,7.987,7.987,0,0,1,1.635,1.066,4.735,4.735,0,0,1,1.38,3.4,2.933,2.933,0,0,1-.2,1.125c-.085.2-.549.334-.839.336-2.926.024-5.852.014-8.779.014-2.865,0-5.728-.022-8.591.016h-.047C22.741,24.077,22.513,23.861,22.427,23.046ZM22,20.852H1.891A1.891,1.891,0,0,1,0,18.963h4.17V.983A.978.978,0,0,1,5.148.005H32.184a.978.978,0,0,1,.976.977V4.93a5.829,5.829,0,0,0-1.07-.1h-.02a5.663,5.663,0,0,0-.93.08V1.83H6.19v15.7H25.319c-.16.067-.318.133-.48.207A4.36,4.36,0,0,0,22,20.851h0ZM32,15.238a4.954,4.954,0,0,1-4.852-4.932q0-.031,0-.063a5.034,5.034,0,0,1,4.858-4.982,4.952,4.952,0,0,1,4.868,5.029c0,.022,0,.044,0,.066a4.9,4.9,0,0,1-4.847,4.882Zm-17.564-.16c-.334,0-.436-.1-.474-.463a2.872,2.872,0,0,1-.016-.311,2.049,2.049,0,0,1,1.434-1.943,6.918,6.918,0,0,1,5.994.041,3.554,3.554,0,0,1,.734.478,2.147,2.147,0,0,1,.618,1.531,1.307,1.307,0,0,1-.088.5c-.039.09-.249.149-.377.15-.82.007-1.656.008-2.365.008H18.32l-1.062,0H16.2c-.707,0-1.258,0-1.736.009Zm3.826-4.334a2.229,2.229,0,0,1-2.179-2.215q0-.014,0-.027a2.27,2.27,0,0,1,.657-1.574,2.147,2.147,0,0,1,1.525-.665h.008a2.118,2.118,0,0,1,1.518.643,2.283,2.283,0,0,1,.66,1.617q0,.015,0,.029a2.2,2.2,0,0,1-2.177,2.192Z" transform="translate(7.619 23.231)" fill="#ed1b2e"/>
  </g>
</svg>
